<svg width="62" height="62" viewBox="0 0 62 62" fill="none" xmlns="http://www.w3.org/2000/svg">
<g filter="url(#filter0_d)">
<path d="M36.6687 10H15.3313C12.3869 10 10 12.3869 10 15.3313V36.6687C10 39.6131 12.3869 42 15.3313 42H36.6687C39.6131 42 42 39.6131 42 36.6687V15.3313C42 12.3869 39.6131 10 36.6687 10Z" fill="#F05B5B"/>
</g>
<rect width="20" height="22" transform="translate(16 14)" fill="#F05B5B"/>
<path d="M17 19.9231H19H35" stroke="white" stroke-linecap="round" stroke-linejoin="round"/>
<path d="M20.5 20.7692C20.5 20.0683 19.8284 19.5 19 19.5V20.3462C19.2761 20.3462 19.5 20.5356 19.5 20.7692H20.5ZM20.5 32.6154V20.7692H19.5V32.6154H20.5ZM21 33.0385C20.7239 33.0385 20.5 32.849 20.5 32.6154H19.5C19.5 33.3164 20.1716 33.8846 21 33.8846V33.0385ZM31 33.0385H21V33.8846H31V33.0385ZM31.5 32.6154C31.5 32.849 31.2761 33.0385 31 33.0385V33.8846C31.8284 33.8846 32.5 33.3164 32.5 32.6154H31.5ZM31.5 20.7692V32.6154H32.5V20.7692H31.5ZM33 19.5C32.1716 19.5 31.5 20.0683 31.5 20.7692H32.5C32.5 20.5356 32.7239 20.3462 33 20.3462V19.5ZM34.5 20.7692C34.5 20.0683 33.8284 19.5 33 19.5V20.3462C33.2761 20.3462 33.5 20.5356 33.5 20.7692H34.5ZM34.5 32.6154V20.7692H33.5V32.6154H34.5ZM31 35.5769C32.933 35.5769 34.5 34.251 34.5 32.6154H33.5C33.5 33.7837 32.3807 34.7308 31 34.7308V35.5769ZM21 35.5769H31V34.7308H21V35.5769ZM17.5 32.6154C17.5 34.251 19.067 35.5769 21 35.5769V34.7308C19.6193 34.7308 18.5 33.7837 18.5 32.6154H17.5ZM17.5 20.7692V32.6154H18.5V20.7692H17.5ZM19 19.5C18.1716 19.5 17.5 20.0683 17.5 20.7692H18.5C18.5 20.5356 18.7239 20.3462 19 20.3462V19.5ZM23.5 17.3846C23.5 17.151 23.7239 16.9616 24 16.9616V16.1154C23.1716 16.1154 22.5 16.6837 22.5 17.3846H23.5ZM23.5 19.0769V17.3846H22.5V19.0769H23.5ZM22 20.3462C22.8284 20.3462 23.5 19.7779 23.5 19.0769H22.5C22.5 19.3106 22.2761 19.5 22 19.5V20.3462ZM20.5 19.0769C20.5 19.7779 21.1716 20.3462 22 20.3462V19.5C21.7239 19.5 21.5 19.3106 21.5 19.0769H20.5ZM20.5 17.3846V19.0769H21.5V17.3846H20.5ZM24 14.4231C22.067 14.4231 20.5 15.749 20.5 17.3846H21.5C21.5 16.2163 22.6193 15.2692 24 15.2692V14.4231ZM28 14.4231H24V15.2692H28V14.4231ZM31.5 17.3846C31.5 15.749 29.933 14.4231 28 14.4231V15.2692C29.3807 15.2692 30.5 16.2163 30.5 17.3846H31.5ZM31.5 19.0769V17.3846H30.5V19.0769H31.5ZM30 20.3462C30.8284 20.3462 31.5 19.7779 31.5 19.0769H30.5C30.5 19.3106 30.2761 19.5 30 19.5V20.3462ZM28.5 19.0769C28.5 19.7779 29.1716 20.3462 30 20.3462V19.5C29.7239 19.5 29.5 19.3106 29.5 19.0769H28.5ZM28.5 17.3846V19.0769H29.5V17.3846H28.5ZM28 16.9616C28.2761 16.9616 28.5 17.151 28.5 17.3846H29.5C29.5 16.6837 28.8284 16.1154 28 16.1154V16.9616ZM24 16.9616H28V16.1154H24V16.9616Z" fill="white"/>
<path d="M24 24.1538V29.2307" stroke="white" stroke-linecap="round" stroke-linejoin="round"/>
<path d="M28 24.1538V29.2307" stroke="white" stroke-linecap="round" stroke-linejoin="round"/>
<defs>
<filter id="filter0_d" x="0" y="0" width="62" height="62" filterUnits="userSpaceOnUse" color-interpolation-filters="sRGB">
<feFlood flood-opacity="0" result="BackgroundImageFix"/>
<feColorMatrix in="SourceAlpha" type="matrix" values="0 0 0 0 0 0 0 0 0 0 0 0 0 0 0 0 0 0 127 0"/>
<feOffset dx="5" dy="5"/>
<feGaussianBlur stdDeviation="7.5"/>
<feColorMatrix type="matrix" values="0 0 0 0 0 0 0 0 0 0 0 0 0 0 0 0 0 0 0.15 0"/>
<feBlend mode="normal" in2="BackgroundImageFix" result="effect1_dropShadow"/>
<feBlend mode="normal" in="SourceGraphic" in2="effect1_dropShadow" result="shape"/>
</filter>
</defs>
</svg>
